<svg xmlns="http://www.w3.org/2000/svg" width="42.198" height="28.8" viewBox="0 0 42.198 28.8"><defs><style>.a{fill:#ffe629;}</style></defs><g transform="translate(-140.043 -231.959)"><path class="a" d="M13.309,1.684a1.3,1.3,0,0,1,2.182,0L27.5,20.224a1.3,1.3,0,0,1-1.091,2.007H2.391A1.3,1.3,0,0,1,1.3,20.224Z" transform="translate(162.273 231.959) rotate(90)"/><path class="a" d="M13.309,1.684a1.3,1.3,0,0,1,2.182,0L27.5,20.224a1.3,1.3,0,0,1-1.091,2.007H2.391A1.3,1.3,0,0,1,1.3,20.224Z" transform="translate(160.011 260.759) rotate(-90)"/></g></svg>