<svg xmlns="http://www.w3.org/2000/svg" width="12.493" height="13.441" viewBox="0 0 12.493 13.441"><defs><style>.a{fill:#fff;}</style></defs><g transform="translate(-56.216 -245.763)"><path class="a" d="M6.246,111.08h.593l5.569-6.465a.349.349,0,0,0-.264-.576H.349a.349.349,0,0,0-.264.576l5.569,6.465Zm0,0" transform="translate(56.216 141.724)"/><path d="M96.318,315.893v-4.8H95.133v4.8a.7.7,0,0,1-.383.622l-2.006,1.014a.209.209,0,0,0,.094.4h5.774a.209.209,0,0,0,.094-.4L96.7,316.516A.7.7,0,0,1,96.318,315.893Zm0,0" transform="translate(-33.263 -58.721)"/></g></svg>