<svg xmlns="http://www.w3.org/2000/svg" width="8.539" height="11.386" viewBox="0 0 8.539 11.386"><defs><style>.a{fill:#ba2110;}</style></defs><g transform="translate(-64)"><g transform="translate(64 0)"><path class="a" d="M72.515,6.666a6.711,6.711,0,0,0-1.618-3.7,4.441,4.441,0,0,1-1.2-2.727.238.238,0,0,0-.129-.211.235.235,0,0,0-.246.018,6.033,6.033,0,0,0-2.227,3.218,10.5,10.5,0,0,0-.244,2.406C65.88,5.462,65.66,4.015,65.658,4a.237.237,0,0,0-.338-.18c-.051.025-1.245.631-1.315,3.054,0,.081-.005.161-.005.242a4.274,4.274,0,0,0,4.27,4.269h.012a4.275,4.275,0,0,0,4.257-4.269C72.539,7,72.515,6.666,72.515,6.666ZM68.27,10.911A1.473,1.473,0,0,1,66.846,9.4c0-.028,0-.057,0-.092A1.923,1.923,0,0,1,67,8.549a.866.866,0,0,0,.783.567.237.237,0,0,0,.237-.237A4.745,4.745,0,0,1,68.11,7.8a2.294,2.294,0,0,1,.48-.909,3.056,3.056,0,0,0,.489.9,2.7,2.7,0,0,1,.608,1.481c0,.041.006.082.006.126A1.474,1.474,0,0,1,68.27,10.911Z" transform="translate(-64 0)"/></g></g></svg>