<svg xmlns="http://www.w3.org/2000/svg" width="20.472" height="45.663" viewBox="0 0 20.472 45.663"><defs><style>.a{fill:#fff;}.b{fill:#ddb16f;}.c{fill:#f9eab0;}</style></defs><g transform="translate(-0.496 0)"><path d="M193.513,419.472a2.18,2.18,0,0,0,.787.142,2.362,2.362,0,0,0,0-4.724,2.294,2.294,0,0,0-.905.181" transform="translate(-175.694 -377.888)"/><path d="M3.779,415.071a2.294,2.294,0,0,0-.905-.181,2.362,2.362,0,1,0,0,4.724,2.176,2.176,0,0,0,.787-.142" transform="translate(-0.014 -377.888)"/><path class="a" d="M.745,15.632A10.259,10.259,0,0,1,7.768,3.582a2,2,0,0,0,1.39-1.919h0A1.634,1.634,0,0,1,10.594,0a1.585,1.585,0,0,1,1.714,1.569v.089A2,2,0,0,0,13.7,3.582a10.26,10.26,0,0,1,7.024,12.05l-3.69,13.5-6.3,1.575-6.3-1.575Zm0,0" transform="translate(0 0)"/><g transform="translate(5.531 11.808)"><path d="M59.783,214.626a.787.787,0,0,1-.771-.633l-2.055-10.266a.787.787,0,0,1,1.544-.309l2.055,10.266a.788.788,0,0,1-.773.942Zm0,0" transform="translate(-56.944 -196.518)"/><path d="M133.714,214.626a.788.788,0,0,1-.773-.942L135,203.418a.787.787,0,0,1,1.544.309l-2.055,10.266A.787.787,0,0,1,133.714,214.626Zm0,0" transform="translate(-126.149 -196.518)"/><path d="M66.955,142.641a.787.787,0,0,1-.739-.516L64.3,136.9l-.568,1.327a.787.787,0,1,1-1.447-.62l1.349-3.149a.787.787,0,0,1,1.463.039l1.784,4.866,1.918-6.4a.788.788,0,0,1,.754-.561h.007a.788.788,0,0,1,.751.575L71.64,137.7a.787.787,0,0,1-1.516.426l-.6-2.116L67.71,142.08a.787.787,0,0,1-.731.561Zm0,0" transform="translate(-61.743 -132.406)"/></g><path class="a" d="M62.3,353.1h9.447v7.873H62.3Zm0,0" transform="translate(-56.296 -321.607)"/><path class="b" d="M37.4,406.063H48.417a1.575,1.575,0,0,1,1.575,1.575v6.3H35.82v-6.3A1.575,1.575,0,0,1,37.4,406.063Zm0,0" transform="translate(-32.174 -369.848)"/><path class="a" d="M10.915,476.684H26.66a1.575,1.575,0,1,1,0,3.149H10.915a1.575,1.575,0,1,1,0-3.149Zm0,0" transform="translate(-8.055 -434.17)"/><path d="M93.513,417.252a2.362,2.362,0,1,1-2.362-2.362A2.362,2.362,0,0,1,93.513,417.252Zm0,0" transform="translate(-80.418 -377.889)"/><path class="a" d="M28.964,326.613H40.774a1.968,1.968,0,1,1,0,3.936H28.964a1.968,1.968,0,0,1,0-3.936Zm0,0" transform="translate(-24.136 -297.484)"/><path class="a" d="M46.617,326.613h8.66a1.968,1.968,0,1,1,0,3.936h-8.66a1.968,1.968,0,1,1,0-3.936Zm0,0" transform="translate(-40.214 -297.484)"/><path class="c" d="M47.8,178.118a.986.986,0,0,1-.016.213,1.587,1.587,0,0,1-1.338,1.346,1.943,1.943,0,0,1-.221.016,1.575,1.575,0,0,1,0-3.149,1.869,1.869,0,0,1,.221.016,1.586,1.586,0,0,1,1.338,1.346.114.114,0,0,1,.008.055A.991.991,0,0,1,47.8,178.118Zm0,0" transform="translate(-40.214 -160.798)"/><path class="c" d="M153.731,178.118a1.575,1.575,0,1,1-1.575-1.575A1.575,1.575,0,0,1,153.731,178.118Zm0,0" transform="translate(-136.7 -160.798)"/></g></svg>