<svg xmlns="http://www.w3.org/2000/svg" width="24" height="25.132" viewBox="0 0 24 25.132"><defs><style>.a{opacity:0.52;}.b{fill:#fff;}.c{fill:#ddb271;}</style></defs><g class="a" transform="translate(-333 -737.868)"><path class="b" d="M0,0H2V5.669H0Z" transform="translate(344 750)"/><path class="c" d="M1,0H7A1,1,0,0,1,8,1V1A0,0,0,0,1,8,1H0A0,0,0,0,1,0,1V1A1,1,0,0,1,1,0Z" transform="translate(341 762)"/><rect class="b" width="1" height="4" transform="translate(352 752)"/><circle class="c" cx="2.5" cy="2.5" r="2.5" transform="translate(350 755)"/><path class="c" d="M4.966,0H19.034L24,14.242a.861.861,0,0,1-.828.89H.828A.861.861,0,0,1,0,14.242Z" transform="translate(333 737.868)"/><path class="b" d="M3,0H5A3,3,0,0,1,8,3L7,7H1L0,3A3,3,0,0,1,3,0Z" transform="translate(341 755)"/></g></svg>