<svg xmlns="http://www.w3.org/2000/svg" width="26.451" height="24.815" viewBox="0 0 26.451 24.815"><defs><style>.a{fill:#fff;}.b{fill:#ddb271;}</style></defs><path class="a" d="M100.5,409.58a1.6,1.6,0,0,1-1.6-1.6V404h3.193v3.983A1.6,1.6,0,0,1,100.5,409.58Zm0,0" transform="translate(-93.789 -384.764)"/><path class="a" d="M357.011,409.58a1.6,1.6,0,0,1-1.6-1.6V404h3.193v3.983A1.6,1.6,0,0,1,357.011,409.58Zm0,0" transform="translate(-337.053 -384.764)"/><path class="b" d="M81.877,18.2H61.813V5.961A5.961,5.961,0,0,1,67.773,0h8.143a5.961,5.961,0,0,1,5.961,5.961Zm0,0" transform="translate(-58.619)"/><path class="a" d="M64.473,356.578H45.024a1.239,1.239,0,0,1-1.239-1.239V352.32H65.712v3.019A1.239,1.239,0,0,1,64.473,356.578Zm0,0" transform="translate(-41.523 -334.119)"/><path class="b" d="M65.712,298.587H43.785v-1.011A1.916,1.916,0,0,1,45.7,295.66H63.79a1.922,1.922,0,0,1,1.922,1.922Zm0,0" transform="translate(-41.523 -280.386)"/><g transform="translate(7.702 2.321)"><path class="a" d="M3.315,1.463H2.239V.387a.387.387,0,0,0-.775,0V1.463H.387a.387.387,0,0,0,0,.775H1.464V3.315a.387.387,0,0,0,.775,0V2.238H3.315a.387.387,0,0,0,0-.775Zm0,0" transform="translate(2.618 0) rotate(45)"/><path class="a" d="M3.315,1.463H2.238V.387a.387.387,0,1,0-.775,0V1.463H.387a.387.387,0,1,0,0,.775H1.463V3.315a.387.387,0,1,0,.775,0V2.238H3.315a.387.387,0,0,0,0-.775Zm0,0" transform="translate(8.632 0) rotate(45)"/><path class="a" d="M3.315,1.464H2.239V.387a.387.387,0,0,0-.775,0V1.464H.387a.387.387,0,1,0,0,.775H1.464V3.315a.387.387,0,1,0,.775,0V2.239H3.315a.387.387,0,1,0,0-.775Zm0,0" transform="translate(2.618 6.307) rotate(45)"/><path class="a" d="M3.315,1.464H2.238V.387a.387.387,0,0,0-.775,0V1.464H.387a.387.387,0,1,0,0,.775H1.463V3.315a.387.387,0,1,0,.775,0V2.239H3.315a.387.387,0,1,0,0-.775Zm0,0" transform="translate(8.632 6.307) rotate(45)"/></g><path class="b" d="M4.79,222.34A2.395,2.395,0,1,1,2.4,219.945,2.395,2.395,0,0,1,4.79,222.34Zm0,0" transform="translate(0 -208.582)"/><path class="b" d="M424.075,222.34a2.395,2.395,0,1,1-2.4-2.395A2.395,2.395,0,0,1,424.075,222.34Zm0,0" transform="translate(-397.624 -208.582)"/></svg>