<svg xmlns="http://www.w3.org/2000/svg" width="23.202" height="26.761" viewBox="0 0 23.202 26.761"><defs><style>.a{}.b{fill:#fff;}.c{fill:#ddb271;}</style></defs><g class="a" transform="translate(-130 -731.692)"><path class="b" d="M7.022,22.118A4.577,4.577,0,0,1,7.769,13a4.607,4.607,0,0,1,4.451,4.58Z" transform="translate(127.061 718.699)"/><path class="c" d="M13.992,35.513l2.584.775c.773.232,1.3-.057,1.3.751H7c0-.807.529-.519,1.3-.751l2.584-.775a.907.907,0,0,0,.647-.869V31.239c-2.8-.509-6.722-3.111-6.382-5.938L5.907,14H18.972l.756,11.3c.339,2.827-3.581,5.429-6.382,5.938v3.405a.907.907,0,0,0,.646.869Z" transform="translate(127.841 721.415)"/><path class="b" d="M4.323.314a.3.3,0,0,1,.478,0l3.957,5.2A.3.3,0,0,1,8.519,6H.6a.3.3,0,0,1-.239-.482Z" transform="translate(147.543 738.959) rotate(90)"/><path class="b" d="M4.323.314a.3.3,0,0,1,.478,0l3.957,5.2A.3.3,0,0,1,8.519,6H.6a.3.3,0,0,1-.239-.482Z" transform="translate(147.202 748.083) rotate(-90)"/></g></svg>