<svg xmlns="http://www.w3.org/2000/svg" width="28.921" height="21.492" viewBox="0 0 28.921 21.492"><defs><style>.a{opacity:0.52;}.b{fill:#fff;}.c{fill:#ddb271;}</style></defs><g class="a" transform="translate(-0.075 -65.068)"><path class="b" d="M12.149,114.2v-1.9L6.855,113.8A4.2,4.2,0,0,1,10,110.742a4.76,4.76,0,0,1,2.149-.113V102.8H14.8A19.215,19.215,0,0,0,14,100.744c-.385-.792-.792-.271-1.674.5a12.437,12.437,0,0,1-4.66,2.307,12.507,12.507,0,0,1-5.18.339c-1.154-.2-1.764-.452-1.7.43a18.763,18.763,0,0,0,.656,3.574c.9,3.438,3.913,10.066,9.614,8.528a5.736,5.736,0,0,0,3.28-2.217Zm-8.528-6.266,4.049-1.063a2.279,2.279,0,0,1-1.629,1.968A2.367,2.367,0,0,1,3.621,107.937Z" transform="translate(-0.713 -33.255)"/><path class="c" d="M175.606,69.707A17.368,17.368,0,0,1,162.6,66.223c-1.2-1-1.719-1.674-2.217-.633a25.973,25.973,0,0,0-1.606,4.524c-1.222,4.547-2.126,14.138,5.406,16.151,7.555,2.013,11.559-6.741,12.781-11.288a25.618,25.618,0,0,0,.882-4.705C177.936,69.1,177.144,69.435,175.606,69.707ZM160.45,73.484a3.015,3.015,0,0,1,3.235-1.289,3.279,3.279,0,0,1,2.194,2.828Zm4.931,8.257a5.53,5.53,0,0,1-4.094-3.868l9.523,2.647A5.187,5.187,0,0,1,165.381,81.741Zm3.438-5.768a2.89,2.89,0,0,1,3.1-1.289,3.293,3.293,0,0,1,2.1,2.828Z" transform="translate(-148.856 -0.001)"/></g></svg>