<svg xmlns="http://www.w3.org/2000/svg" width="37.509" height="27" viewBox="0 0 37.509 27"><defs><style>.a{fill:#fff;}</style></defs><rect width="29" height="27" rx="13"/><path d="M4541.491,1397.151h5.845l5.664-6.218-5.664,1.094h-5.845Z" transform="translate(-4515.491 -1381.083)"/><g transform="translate(7.52 13) rotate(-45)"><path class="a" d="M0,0H7.011A3.085,3.085,0,0,1,10.1,3.085v0A3.085,3.085,0,0,1,7.011,6.17H0a0,0,0,0,1,0,0V0A0,0,0,0,1,0,0Z" transform="translate(0 3.926)"/><path class="a" d="M0,0H7.011A3.085,3.085,0,0,1,10.1,3.085v0A3.085,3.085,0,0,1,7.011,6.17H0a0,0,0,0,1,0,0V0A0,0,0,0,1,0,0Z" transform="translate(0 10.096) rotate(-90)"/></g></svg>