<svg xmlns="http://www.w3.org/2000/svg" width="37.509" height="27" viewBox="0 0 37.509 27"><defs><style>.a{fill:#fff;}</style></defs><g transform="translate(-219.562 -351)"><rect width="29" height="27" rx="13" transform="translate(228.07 351)"/><path d="M4553,1390.932h-5.845l-5.664,6.218,5.664-1.094H4553Z" transform="translate(-4321.93 -1029)"/><g transform="translate(165.336 823.395) rotate(-135)"><path class="a" d="M0,0H7.011A3.085,3.085,0,0,1,10.1,3.085v0A3.085,3.085,0,0,1,7.011,6.17H0a0,0,0,0,1,0,0V0A0,0,0,0,1,0,0Z" transform="translate(266 375)"/><path class="a" d="M0,0H7.011A3.085,3.085,0,0,1,10.1,3.085v0A3.085,3.085,0,0,1,7.011,6.17H0a0,0,0,0,1,0,0V0A0,0,0,0,1,0,0Z" transform="translate(272.17 375) rotate(90)"/></g></g></svg>