<svg xmlns="http://www.w3.org/2000/svg" xmlns:xlink="http://www.w3.org/1999/xlink" width="43" height="56" viewBox="0 0 43 56"><defs><style>.a{fill:#ddb426;}.b{clip-path:url(#a);}.c{opacity:0.44;}.d{fill:#b19046;}.e{fill:#9b1000;}.f{fill:#f3d55b;}.g{fill:#efc419;}.h{fill:#fff;}</style><clipPath id="a"><ellipse class="a" cx="19" cy="13" rx="19" ry="13" transform="translate(-0.127 -0.036)"/></clipPath></defs><g transform="translate(-4621.655 -150)"><ellipse cx="19" cy="13" rx="19" ry="13" transform="translate(4624.655 180)"/><rect width="28" height="2" rx="1" transform="translate(4629.655 204)"/><g class="b" transform="translate(4624.782 180.036)"><g class="c" transform="translate(-0.927 3.709)"><ellipse class="d" cx="4.5" cy="8.5" rx="4.5" ry="8.5" transform="translate(-0.2 0.255)"/><ellipse class="d" cx="5" cy="8.5" rx="5" ry="8.5" transform="translate(30.8 0.255)"/></g></g><path class="d" d="M0,5.571a.468.468,0,0,1,.5-.429.468.468,0,0,1,.5.429A.468.468,0,0,1,.5,6,.468.468,0,0,1,0,5.571Zm1.5-1.5A.468.468,0,0,1,2,3.643a.468.468,0,0,1,.5.429A.468.468,0,0,1,2,4.5.468.468,0,0,1,1.5,4.071Zm1-1.714A.468.468,0,0,1,3,1.929a.468.468,0,0,1,.5.429.468.468,0,0,1-.5.429A.468.468,0,0,1,2.5,2.357ZM3,.429A.468.468,0,0,1,3.5,0,.468.468,0,0,1,4,.429a.468.468,0,0,1-.5.429A.468.468,0,0,1,3,.429Z" transform="translate(4631.655 196)"/><path class="d" d="M3,5.571a.468.468,0,0,1,.5-.429.468.468,0,0,1,.5.429A.468.468,0,0,1,3.5,6,.468.468,0,0,1,3,5.571Zm-1.5-1.5A.468.468,0,0,1,2,3.643a.468.468,0,0,1,.5.429A.468.468,0,0,1,2,4.5.468.468,0,0,1,1.5,4.071ZM.5,2.357A.468.468,0,0,1,1,1.929a.468.468,0,0,1,.5.429.468.468,0,0,1-.5.429A.468.468,0,0,1,.5,2.357ZM0,.429A.468.468,0,0,1,.5,0,.468.468,0,0,1,1,.429.468.468,0,0,1,.5.857.468.468,0,0,1,0,.429Z" transform="translate(4652.655 196)"/><g transform="translate(4640.709 196.749)"><path class="e" d="M369.222,119.573a2.511,2.511,0,1,1,2.511-2.511A2.511,2.511,0,0,1,369.222,119.573Zm0-4.156a1.645,1.645,0,1,0,1.645,1.645A1.645,1.645,0,0,0,369.222,115.417Zm0,0" transform="translate(-366.191 -114.031)"/><path class="e" d="M408.8,199.245a.433.433,0,0,1-.433-.433v-.52a.433.433,0,0,1,.866,0v.52A.433.433,0,0,1,408.8,199.245Zm0,0" transform="translate(-405.766 -193.184)"/><path class="e" d="M408.8,105.522a.433.433,0,0,1-.433-.433v-.52a.433.433,0,0,1,.866,0v.52A.433.433,0,0,1,408.8,105.522Zm0,0" transform="translate(-405.766 -104.137)"/><path class="e" d="M357.249,157.069h-.52a.433.433,0,0,1,0-.866h.52a.433.433,0,1,1,0,.866Zm0,0" transform="translate(-356.297 -153.606)"/><path class="e" d="M450.972,157.069h-.52a.433.433,0,0,1,0-.866h.52a.433.433,0,1,1,0,.866Zm0,0" transform="translate(-445.344 -153.606)"/><path class="e" d="M371.979,186.817a.433.433,0,0,1-.306-.739l.367-.367a.433.433,0,1,1,.612.612l-.367.368A.432.432,0,0,1,371.979,186.817Zm0,0" transform="translate(-370.785 -181.517)"/><path class="e" d="M438.252,120.619a.433.433,0,0,1-.306-.739l.367-.367a.433.433,0,0,1,.612.612l-.368.367A.431.431,0,0,1,438.252,120.619Zm0,0" transform="translate(-433.752 -118.625)"/><path class="e" d="M372.347,120.618a.431.431,0,0,1-.306-.127l-.367-.367a.433.433,0,1,1,.612-.612l.367.367a.433.433,0,0,1-.306.739Zm0,0" transform="translate(-370.786 -118.624)"/><path class="e" d="M438.691,186.964a.433.433,0,0,1-.306-.127l-.367-.368a.433.433,0,0,1,.612-.612l.367.367a.433.433,0,0,1-.306.739Zm0,0" transform="translate(-433.824 -181.664)"/><path class="e" d="M409.229,156.636a.433.433,0,1,1-.433-.433A.433.433,0,0,1,409.229,156.636Zm0,0" transform="translate(-405.766 -153.606)"/></g><ellipse cx="21.5" cy="19.5" rx="21.5" ry="19.5" transform="translate(4621.655 157)"/><g transform="translate(4639.951 179.745)"><path class="f" d="M.311.311,5.406,0,5.095,5.095,0,5.406Z" transform="translate(3.823 0) rotate(45)"/><path class="g" d="M0,.311,5.095,0,4.783,5.095Z" transform="translate(4.043 0.22) rotate(45)"/></g><g transform="translate(4625.718 163.311)"><g transform="translate(0 1.565)"><path class="d" d="M144.783,189.3a7.058,7.058,0,1,1-7.058-7.058A7.058,7.058,0,0,1,144.783,189.3Zm0,0" transform="translate(-128.693 -180.147)"/><path class="h" d="M130.058,189.69a8.066,8.066,0,1,1,8.066-8.066A8.066,8.066,0,0,1,130.058,189.69Zm0-14.115a6.049,6.049,0,1,0,6.05,6.05A6.049,6.049,0,0,0,130.058,175.575Zm0,0" transform="translate(-120.984 -172.551)"/><path class="h" d="M183.746,167.907a1.008,1.008,0,0,1-1.008-1.008v-1.008a1.008,1.008,0,0,1,2.016,0V166.9A1.008,1.008,0,0,1,183.746,167.907Zm0,0" transform="translate(-174.672 -164.883)"/><path class="h" d="M183.746,298.076a1.008,1.008,0,0,1-1.008-1.008v-1.008a1.008,1.008,0,1,1,2.016,0v1.008A1.009,1.009,0,0,1,183.746,298.076Zm0,0" transform="translate(-174.672 -279.928)"/><path class="h" d="M245.5,236.321h-1.008a1.008,1.008,0,0,1,0-2.016H245.5a1.008,1.008,0,0,1,0,2.016Zm0,0" transform="translate(-228.361 -226.239)"/><path class="h" d="M115.329,236.321h-1.008a1.008,1.008,0,1,1,0-2.016h1.008a1.008,1.008,0,1,1,0,2.016Zm0,0" transform="translate(-113.312 -226.239)"/><path class="h" d="M119.6,259.931a1.008,1.008,0,0,1-.387-1.94l.931-.386a1.008,1.008,0,1,1,.772,1.863l-.931.386A1.012,1.012,0,0,1,119.6,259.931Zm0,0" transform="translate(-117.973 -246.761)"/><path class="h" d="M239.858,210.137a1.008,1.008,0,0,1-.387-1.94l.932-.386a1.008,1.008,0,0,1,.772,1.863l-.931.386A1,1,0,0,1,239.858,210.137Zm0,0" transform="translate(-224.263 -202.756)"/><path class="h" d="M157.564,173.113a1.009,1.009,0,0,1-.932-.623l-.386-.932a1.008,1.008,0,0,1,1.863-.772l.386.932a1.009,1.009,0,0,1-.931,1.395Zm0,0" transform="translate(-151.19 -169.551)"/><path class="h" d="M134.658,280.081a1.008,1.008,0,0,1-.713-1.721l.713-.713a1.008,1.008,0,0,1,1.425,1.425l-.713.713A1,1,0,0,1,134.658,280.081Zm0,0" transform="translate(-131.287 -264.296)"/><path class="h" d="M226.7,187.837a1.009,1.009,0,0,1-.713-1.721l.713-.713a1.008,1.008,0,1,1,1.425,1.426l-.713.713A1.006,1.006,0,0,1,226.7,187.837Zm0,0" transform="translate(-212.637 -182.745)"/><path class="h" d="M135.262,187.84a1.007,1.007,0,0,1-.713-.3l-.713-.713a1.008,1.008,0,1,1,1.426-1.425l.713.713a1.008,1.008,0,0,1-.713,1.721Zm0,0" transform="translate(-131.179 -182.749)"/><path class="h" d="M157.179,293.427a1.009,1.009,0,0,1-.931-1.395l.386-.931a1.008,1.008,0,0,1,1.863.772l-.386.931A1.008,1.008,0,0,1,157.179,293.427Zm0,0" transform="translate(-151.192 -275.893)"/><path class="h" d="M206.994,173.113a1.009,1.009,0,0,1-.931-1.395l.386-.932a1.008,1.008,0,0,1,1.863.772l-.386.932A1.008,1.008,0,0,1,206.994,173.113Zm0,0" transform="translate(-195.22 -169.551)"/><path class="h" d="M120.534,210.137a1.006,1.006,0,0,1-.386-.077l-.931-.386a1.008,1.008,0,0,1,.772-1.863l.931.386a1.008,1.008,0,0,1-.386,1.94Zm0,0" transform="translate(-117.981 -202.756)"/><path class="h" d="M240.744,259.931a1.01,1.01,0,0,1-.385-.078l-.932-.386a1.008,1.008,0,1,1,.772-1.863l.931.386a1.008,1.008,0,0,1-.386,1.94Zm0,0" transform="translate(-224.219 -246.761)"/><path class="h" d="M226.7,185.093a1.009,1.009,0,0,0-.713,1.721l.713.713a1.008,1.008,0,1,0,1.426-1.426l-.713-.713A1.006,1.006,0,0,0,226.7,185.093Zm0,0" transform="translate(-212.637 -171.816)"/><path class="h" d="M206.994,170.165a1.009,1.009,0,0,0-.931,1.395l.386.932a1.008,1.008,0,0,0,1.863-.772l-.386-.932A1.008,1.008,0,0,0,206.994,170.165Zm0,0" transform="translate(-195.22 -155.358)"/><circle cx="1.646" cy="1.646" r="1.646" transform="translate(7.436 7.436)"/></g><g transform="translate(19.79 0) rotate(11)"><path class="d" d="M14.115,7.058A7.058,7.058,0,1,1,7.058,0,7.058,7.058,0,0,1,14.115,7.058Zm0,0" transform="translate(1.975 2.091)"/><g transform="translate(0 0)"><path class="h" d="M8.066,16.132a8.066,8.066,0,1,1,8.066-8.066A8.066,8.066,0,0,1,8.066,16.132Zm0-14.115a6.049,6.049,0,1,0,6.05,6.05A6.049,6.049,0,0,0,8.066,2.016Zm0,0" transform="translate(1.008 1.008)"/><path class="h" d="M1.008,3.024A1.008,1.008,0,0,1,0,2.016V1.008a1.008,1.008,0,0,1,2.016,0V2.016A1.008,1.008,0,0,1,1.008,3.024Zm0,0" transform="translate(8.066 0)"/><path class="h" d="M1.008,3.025A1.008,1.008,0,0,1,0,2.016V1.008a1.008,1.008,0,1,1,2.016,0V2.016A1.009,1.009,0,0,1,1.008,3.025Zm0,0" transform="translate(8.066 15.123)"/><path class="h" d="M2.016,2.016H1.008A1.008,1.008,0,0,1,1.008,0H2.016a1.008,1.008,0,0,1,0,2.016Zm0,0" transform="translate(15.124 8.066)"/><path class="h" d="M2.016,2.016H1.008A1.008,1.008,0,1,1,1.008,0H2.016a1.008,1.008,0,1,1,0,2.016Zm0,0" transform="translate(0 8.066)"/><path class="h" d="M1.01,2.406A1.008,1.008,0,0,1,.624.466L1.555.08a1.008,1.008,0,1,1,.772,1.863L1.4,2.328A1.012,1.012,0,0,1,1.01,2.406Zm0,0" transform="translate(0.613 10.763)"/><path class="h" d="M1.01,2.4A1.008,1.008,0,0,1,.624.463L1.555.077A1.008,1.008,0,0,1,2.327,1.94L1.4,2.326A1,1,0,0,1,1.01,2.4Zm0,0" transform="translate(14.585 4.979)"/><path class="h" d="M1.395,2.948a1.009,1.009,0,0,1-.932-.623L.077,1.394A1.008,1.008,0,0,1,1.94.622l.386.932a1.009,1.009,0,0,1-.931,1.395Zm0,0" transform="translate(4.979 0.614)"/><path class="h" d="M1.008,2.717A1.008,1.008,0,0,1,.3,1L1.008.283A1.008,1.008,0,0,1,2.434,1.709l-.713.713A1,1,0,0,1,1.008,2.717Zm0,0" transform="translate(2.363 13.068)"/><path class="h" d="M1.008,2.743A1.009,1.009,0,0,1,.3,1.022L1.008.309A1.008,1.008,0,1,1,2.434,1.735l-.713.713A1.006,1.006,0,0,1,1.008,2.743Zm0,0" transform="translate(13.057 2.348)"/><path class="h" d="M1.735,2.743a1.007,1.007,0,0,1-.713-.3L.309,1.735A1.008,1.008,0,1,1,1.735.309l.713.713a1.008,1.008,0,0,1-.713,1.721Zm0,0" transform="translate(2.349 2.349)"/><path class="h" d="M1.008,2.942A1.009,1.009,0,0,1,.076,1.547L.463.616a1.008,1.008,0,0,1,1.863.772l-.386.931A1.008,1.008,0,0,1,1.008,2.942Zm0,0" transform="translate(4.979 14.593)"/><path class="h" d="M1.007,2.948A1.009,1.009,0,0,1,.076,1.554L.462.622a1.008,1.008,0,0,1,1.863.772l-.386.932A1.008,1.008,0,0,1,1.007,2.948Zm0,0" transform="translate(10.767 0.614)"/><path class="h" d="M1.94,2.4a1.006,1.006,0,0,1-.386-.077L.623,1.94A1.008,1.008,0,0,1,1.395.077l.931.386A1.008,1.008,0,0,1,1.94,2.4Zm0,0" transform="translate(0.614 4.979)"/><path class="h" d="M1.946,2.406a1.011,1.011,0,0,1-.385-.078L.629,1.943A1.008,1.008,0,1,1,1.4.08l.931.386a1.008,1.008,0,0,1-.386,1.94Zm0,0" transform="translate(14.579 10.763)"/><path class="h" d="M1.008,0A1.009,1.009,0,0,0,.3,1.721l.713.713A1.008,1.008,0,1,0,2.434,1.008L1.721.3A1.006,1.006,0,0,0,1.008,0Zm0,0" transform="translate(13.057 13.277)"/><path class="h" d="M1.007,0A1.009,1.009,0,0,0,.076,1.395l.386.932a1.008,1.008,0,0,0,1.863-.772L1.939.623A1.008,1.008,0,0,0,1.007,0Zm0,0" transform="translate(10.767 14.807)"/></g><circle cx="1.646" cy="1.646" r="1.646" transform="translate(7.436 7.436)"/></g></g><g transform="translate(4624.207 155)"><path class="e" d="M44.455,29.145s.314-6.825-9.257-9.987S24.961,12.5,24.961,12.5s-.014,8.375,7.65,10.846A40.361,40.361,0,0,1,44.455,29.145Z" transform="translate(-24.961 -17.5)"/><path class="e" d="M64,29.145s-.314-6.825,9.257-9.987S83.492,12.5,83.492,12.5s.014,8.375-7.65,10.846A40.336,40.336,0,0,0,64,29.145Z" transform="translate(-44.504 -17.5)"/></g></g></svg>