<svg xmlns="http://www.w3.org/2000/svg" width="22.866" height="28.152" viewBox="0 0 22.866 28.152"><defs><style>.a{fill:#2997b1;}.b{fill:#fff;}.c{fill:#ffe83b;}.d{fill:#6dc54a;}</style></defs><path class="a" d="M227.207,0a1.38,1.38,0,0,0-1.228,2.011l-8.164,8.163a.423.423,0,1,0,.6.6l8.163-8.163A1.381,1.381,0,1,0,227.207,0Zm0,1.916a.535.535,0,1,1,.535-.535A.536.536,0,0,1,227.207,1.916Zm0,0" transform="translate(-205.722 0)"/><path class="b" d="M10.1,115.424h.958l9-10.453a.564.564,0,0,0-.427-.932H.565a.564.564,0,0,0-.427.932l9,10.453Zm0,0" transform="translate(0 -98.319)"/><path class="b" d="M174.992,104.039l-9.75,11.319.056.065h1.916l9-10.453a.564.564,0,0,0-.427-.932Zm0,0" transform="translate(-156.156 -98.319)"/><path class="b" d="M98.594,318.855v-7.761H96.678v7.761a1.127,1.127,0,0,1-.619,1.006l-3.244,1.64a.338.338,0,0,0,.152.64H102.3a.338.338,0,0,0,.153-.64l-3.244-1.64A1.127,1.127,0,0,1,98.594,318.855Zm0,0" transform="translate(-87.536 -293.989)"/><path class="b" d="M167.34,312.616v6.374a1.916,1.916,0,0,0,1.052,1.71l2.851,1.441h.653a.338.338,0,0,0,.152-.64l-3.244-1.64a1.127,1.127,0,0,1-.619-1.006v-7.761H166.27v.958h.507A.564.564,0,0,1,167.34,312.616Zm0,0" transform="translate(-157.127 -293.989)"/><path class="c" d="M29.41,152.215l7.525,8.736h1.916l7.525-8.736Zm0,0" transform="translate(-27.793 -143.845)"/><path class="d" d="M167.25,177.569a1.894,1.894,0,1,0,.279,2.909A2.086,2.086,0,0,0,167.25,177.569Zm0,0" transform="translate(-154.858 -167.095)"/><path class="b" d="M145.42,232.842a.423.423,0,0,1-.3-.722l1.367-1.367a.423.423,0,1,1,.6.6l-1.367,1.367A.421.421,0,0,1,145.42,232.842Zm0,0" transform="translate(-137.024 -217.949)"/><path class="a" d="M160.334,170a2.886,2.886,0,0,0-2.008-.875,2.1,2.1,0,0,0-1.5.6,2.506,2.506,0,0,0,.279,3.507,2.886,2.886,0,0,0,2.008.875,2.1,2.1,0,0,0,1.5-.6A2.507,2.507,0,0,0,160.334,170Zm0,0" transform="translate(-147.642 -159.829)"/><path class="b" d="M217.815,108.493a.423.423,0,0,0,.6.6l5.052-5.052h-1.2Zm0,0" transform="translate(-205.722 -98.319)"/><path class="b" d="M218.114,154.742a.421.421,0,0,0,.3-.124l2.4-2.4h-1.2l-1.805,1.805a.423.423,0,0,0,.3.722Zm0,0" transform="translate(-205.722 -143.845)"/><path class="a" d="M96.059,320.692l-3.244,1.64a.338.338,0,0,0,.152.64H102.3a.338.338,0,0,0,.153-.64l-3.244-1.64A8.715,8.715,0,0,0,96.059,320.692Z" transform="translate(-87.536 -294.82)"/></svg>