<svg xmlns="http://www.w3.org/2000/svg" width="33.886" height="41.72" viewBox="0 0 33.886 41.72"><defs><style>.a{fill:#67b9cc;}.b{fill:#fff;}.c{fill:#6dc54a;}</style></defs><path class="a" d="M231.793,0a2.045,2.045,0,0,0-1.82,2.98l-12.1,12.1a.626.626,0,1,0,.886.886l12.1-12.1A2.046,2.046,0,1,0,231.793,0Zm0,2.84a.794.794,0,1,1,.793-.794A.794.794,0,0,1,231.793,2.84Zm0,0" transform="translate(-199.953 0)"/><path class="b" d="M14.968,120.911h1.42L29.732,105.42a.835.835,0,0,0-.633-1.38H.837A.835.835,0,0,0,.2,105.42l13.344,15.491Zm0,0" transform="translate(0 -95.562)"/><path class="b" d="M179.692,104.039l-14.449,16.775.083.1h2.84l13.344-15.491a.835.835,0,0,0-.633-1.38Zm0,0" transform="translate(-151.778 -95.562)"/><path class="b" d="M101.469,322.6v-11.5h-2.84v11.5a1.67,1.67,0,0,1-.917,1.491l-4.808,2.43a.5.5,0,0,0,.226.949h13.836a.5.5,0,0,0,.226-.949l-4.808-2.43A1.67,1.67,0,0,1,101.469,322.6Zm0,0" transform="translate(-85.081 -285.745)"/><path class="b" d="M167.856,313.349v9.446a2.84,2.84,0,0,0,1.559,2.534l4.224,2.135h.968a.5.5,0,0,0,.226-.949l-4.808-2.43a1.67,1.67,0,0,1-.917-1.491v-11.5h-2.84v1.42h.751A.835.835,0,0,1,167.856,313.349Zm0,0" transform="translate(-152.721 -285.745)"/><path d="M29.41,152.215l11.152,12.946H43.4l11.152-12.946Zm0,0" transform="translate(-27.014 -139.812)"/><path class="c" d="M168.88,177.931a2.807,2.807,0,1,0,.413,4.311A3.091,3.091,0,0,0,168.88,177.931Zm0,0" transform="translate(-150.516 -162.41)"/><path class="b" d="M145.623,233.908a.627.627,0,0,1-.443-1.069l2.025-2.025a.626.626,0,0,1,.886.886l-2.026,2.025A.624.624,0,0,1,145.623,233.908Zm0,0" transform="translate(-133.182 -211.837)"/><path class="a" d="M162.31,170.426a4.278,4.278,0,0,0-2.976-1.3,3.106,3.106,0,0,0-2.222.884,3.714,3.714,0,0,0,.413,5.2,4.277,4.277,0,0,0,2.976,1.3,3.107,3.107,0,0,0,2.222-.884A3.715,3.715,0,0,0,162.31,170.426Zm0,0" transform="translate(-143.502 -155.348)"/><path class="b" d="M217.875,110.64a.626.626,0,0,0,.886.886l7.486-7.487h-1.772Zm0,0" transform="translate(-199.953 -95.562)"/><path class="b" d="M218.318,155.959a.624.624,0,0,0,.443-.184l3.561-3.561H220.55l-2.675,2.675a.627.627,0,0,0,.443,1.069Zm0,0" transform="translate(-199.953 -139.812)"/><path class="a" d="M97.712,320.761l-4.808,2.43a.5.5,0,0,0,.226.948h13.836a.5.5,0,0,0,.226-.948l-4.808-2.43A12.917,12.917,0,0,0,97.712,320.761Z" transform="translate(-85.081 -282.42)"/></svg>