<svg xmlns="http://www.w3.org/2000/svg" width="15.951" height="12.482" viewBox="0 0 15.951 12.482"><defs><style>.a{fill:#fff;}</style></defs><g transform="translate(-140.043 -231.959)"><path class="a" d="M6,.314a.3.3,0,0,1,.478,0l5.636,7.413a.3.3,0,0,1-.239.482H.6a.3.3,0,0,1-.239-.482Z" transform="translate(148.251 231.959) rotate(90)"/><path class="a" d="M6,.314a.3.3,0,0,1,.478,0l5.636,7.413a.3.3,0,0,1-.239.482H.6a.3.3,0,0,1-.239-.482Z" transform="translate(147.785 244.441) rotate(-90)"/></g></svg>