<svg xmlns="http://www.w3.org/2000/svg" width="12.181" height="15.843" viewBox="0 0 12.181 15.843"><defs><style>.a{fill:#fff;}</style></defs><g transform="translate(-3.5)"><path d="M40.124,20.232H38.5v1.083h1.083a.543.543,0,0,1,.541.541v2.707a.543.543,0,0,1-.541.541H38.5v1.083h1.624A1.086,1.086,0,0,0,41.207,25.1v-3.79A1.086,1.086,0,0,0,40.124,20.232Z" transform="translate(-25.526 -14.755)"/><path class="a" d="M11.35,1.083a1.614,1.614,0,0,0-.993.341A1.622,1.622,0,0,0,8.268.676a1.758,1.758,0,0,0-3.1.717A1.342,1.342,0,0,0,3.5,2.707V4.872a.543.543,0,0,0,.541.541h.271a.543.543,0,0,0,.541-.541V4.44a1.068,1.068,0,0,0,.56.161h.532a1.078,1.078,0,0,0,.849-.42,1.622,1.622,0,0,0,2.95-.934H12.88a1.62,1.62,0,0,0-1.53-2.165Z" transform="translate(0)"/><path class="a" d="M13.391,12a1.622,1.622,0,0,1-2.95.934,1.078,1.078,0,0,1-.849.42H9.06a1.069,1.069,0,0,1-.56-.161V23.241a1.357,1.357,0,0,0,1.353,1.353h5.414a1.357,1.357,0,0,0,1.353-1.353V12Z" transform="translate(-3.647 -8.752)"/></g></svg>