<svg xmlns="http://www.w3.org/2000/svg" width="6.591" height="19.612" viewBox="0 0 6.591 19.612"><defs><style>.a{fill:#fff;}</style></defs><g transform="translate(-194 -148)"><path class="a" d="M4.394,120.919V120H2.2v.919A3.3,3.3,0,0,0,0,124.028v9.359a.732.732,0,0,0,.732.732H5.859a.734.734,0,0,0,.732-.732v-9.359A3.3,3.3,0,0,0,4.394,120.919Zm0,0" transform="translate(194 33.493)"/><path d="M48,0h2.2V1.827H48Zm0,0" transform="translate(148.197 148)"/><path d="M48,39.922h2.2v3.665H48Zm0,0" transform="translate(148.197 109.905)"/></g></svg>