<svg xmlns="http://www.w3.org/2000/svg" width="15" height="25" viewBox="0 0 15 25"><defs><style>.a{fill:#ddb16f;opacity:0.6;}</style></defs><path class="a" d="M11.5,25h-8a.833.833,0,1,1,0-1.667h.03v-.01H6.677V20.79A7.547,7.547,0,0,1,0,13.282c0-.021,0-.04,0-.059s0-.03,0-.045v-1.91a.788.788,0,0,1-.006-.1.833.833,0,1,1,1.667,0,.81.81,0,0,1,0,.082v2.3l0,.007c0,.015,0,.03,0,.045s0,.03,0,.044v.313h.016a5.87,5.87,0,0,0,5.645,5.377H7.66a5.869,5.869,0,0,0,5.647-5.377h.02V11.175h.006v-.01a.833.833,0,0,1,1.667,0,.622.622,0,0,1,0,.071v2.046h-.01a7.559,7.559,0,0,1-6.66,7.508v2.533h3.14v.01H11.5A.833.833,0,0,1,11.5,25Zm-4-7a4.343,4.343,0,0,1-2.679-.931,4.359,4.359,0,0,1-1.584-2.307,6.182,6.182,0,0,1-.206-1.344C3,12.951,3,12.465,3,11.995V7.665c0-.131,0-.378,0-.679,0-.848,0-2.129,0-2.4a4.773,4.773,0,0,1,.234-1.344,4.426,4.426,0,0,1,8.527,0,6.377,6.377,0,0,1,.234,1.344c.022.372.011,1.607,0,2.425v.006c0,.288,0,.524,0,.654v4.264c0,.492,0,1-.028,1.486a6.3,6.3,0,0,1-.206,1.344,4.4,4.4,0,0,1-1.584,2.307A4.345,4.345,0,0,1,7.5,18Zm0-16.329a2.752,2.752,0,0,0-1.682.577,2.816,2.816,0,0,0-.994,1.487,4.416,4.416,0,0,0-.143.859c-.018.23-.015,1.7-.011,3.923,0,1.219,0,2.6,0,4.151,0,.323,0,.428.02.746a4.161,4.161,0,0,0,.13.86,2.816,2.816,0,0,0,.994,1.487,2.739,2.739,0,0,0,3.363,0,2.825,2.825,0,0,0,.99-1.487,3.919,3.919,0,0,0,.13-.86c.021-.323.027-.431.027-.746,0-1.865,0-3.513.009-4.838.005-1.816.009-3.016,0-3.237a4,4,0,0,0-.16-.859,2.825,2.825,0,0,0-.99-1.487A2.752,2.752,0,0,0,7.5,1.667Z"/></svg>