<svg xmlns="http://www.w3.org/2000/svg" width="27" height="27" viewBox="0 0 27 27"><defs><style>.a{fill:#ddb16f;opacity:0.6;}</style></defs><path class="a" d="M13.5,27A13.5,13.5,0,0,1,3.954,3.954,13.5,13.5,0,0,1,23.046,23.046,13.415,13.415,0,0,1,13.5,27Zm0-25.428A11.928,11.928,0,0,0,5.064,21.934,11.928,11.928,0,0,0,21.934,5.067,11.847,11.847,0,0,0,13.5,1.572Zm0,21.381a9.426,9.426,0,0,1-5.891-2.078,8.577,8.577,0,0,1-3.092-4.959.92.92,0,0,1,.158-.771.987.987,0,0,1,.764-.291,1.925,1.925,0,0,1,.449.056,26.276,26.276,0,0,0,7.3,1.035l.312,0,.3,0A26.281,26.281,0,0,0,21.1,14.914a1.906,1.906,0,0,1,.466-.061.976.976,0,0,1,.749.276.867.867,0,0,1,.185.7,8.54,8.54,0,0,1-3.069,5.021A9.422,9.422,0,0,1,13.5,22.954ZM6.54,16.279a.424.424,0,0,0-.459.324A1.227,1.227,0,0,0,6.756,17.8a15.751,15.751,0,0,0,6.571,1.425h.184a15.63,15.63,0,0,0,6.869-1.478,1.208,1.208,0,0,0,.574-1.169.425.425,0,0,0-.452-.3,1.348,1.348,0,0,0-.446.091l-.028.01a23.623,23.623,0,0,1-6.238.839l-.28,0a20.887,20.887,0,0,1-6.63-.878A1.212,1.212,0,0,0,6.54,16.279Zm11.239-5.471a1.577,1.577,0,0,1-1.578-1.6,1.558,1.558,0,0,1,1.558-1.563h.04a1.558,1.558,0,0,1,1.557,1.563,1.576,1.576,0,0,1-1.577,1.6Zm-8.55-.023A1.579,1.579,0,0,1,7.652,9.207,1.558,1.558,0,0,1,9.209,7.644h.04a1.567,1.567,0,0,1,1.1.451,1.549,1.549,0,0,1,.462,1.111A1.579,1.579,0,0,1,9.229,10.784Z"/></svg>