<svg xmlns="http://www.w3.org/2000/svg" width="33.713" height="26.161" viewBox="0 0 33.713 26.161"><defs><style>.a{fill:#ddb16f;}.b{fill:#f18d46;}.c{fill:#d25627;}.d{fill:#fff;}</style></defs><g transform="translate(5.539 -2.613) rotate(16)"><path class="a" d="M452.71,66.494a4.7,4.7,0,0,0,.668-2.758c0-1.65-.543-2.986-1.086-2.986s-1.086,1.335-1.086,2.986a5.627,5.627,0,0,0,.467,2.448" transform="translate(-422.977 -56.946)"/><path class="a" d="M452.71,211.922a4.7,4.7,0,0,1,.668,2.758c0,1.65-.543,2.986-1.086,2.986s-1.086-1.335-1.086-2.986a5.628,5.628,0,0,1,.467-2.449" transform="translate(-422.977 -198.661)"/><path d="M284.86,247.382v.005a.457.457,0,0,1-.049.266,2.186,2.186,0,0,0-.233,1.737.539.539,0,0,1-.527.711c-1.65-.049-5.076-.488-6.7-3.208.043-.006.087-.016.136-.027.716-.174.863-3.029,1.515-3.279,2.258-.868,4.631.456,5.771-1.118-.977,2.617-.347,4.1.005,4.658A.432.432,0,0,1,284.86,247.382Zm0,0" transform="translate(-260.001 -227.297)"/><path d="M284.86,2.718v.006a.433.433,0,0,1-.081.255c-.353.559-.983,2.041-.005,4.658-.744-1.031-2.877.722-4.142-.033-1.221-.727-1.569-3.985-3.143-4.365-.049-.011-.092-.022-.136-.027C278.975.493,282.4.053,284.051,0a.539.539,0,0,1,.527.711,2.186,2.186,0,0,0,.233,1.737A.456.456,0,0,1,284.86,2.718Zm0,0" transform="translate(-260.001 0)"/><path class="a" d="M26.058,52.08c0,.114-.005.223-.016.337a6.41,6.41,0,0,1-1.27,3.431,12.551,12.551,0,0,1-7.285,4.4c-.049.011-.092.022-.136.027a18.79,18.79,0,0,1-4.321.494A16.61,16.61,0,0,1,3.6,58.073c-.114-.081-.228-.163-.342-.25a9.374,9.374,0,0,1-2.025-2.047,6.8,6.8,0,0,1-.972-1.943,6.036,6.036,0,0,1-.261-1.612A1.185,1.185,0,0,1,0,52.08.413.413,0,0,1,.005,52a.221.221,0,0,1,0-.06v-.027a.361.361,0,0,1,.011-.076.266.266,0,0,0-.011.065,3.223,3.223,0,0,1,.016-.326,7.3,7.3,0,0,1,2.9-4.967,16.1,16.1,0,0,1,10.109-3.214,18.79,18.79,0,0,1,4.321.494c.043.005.087.016.136.027a12.551,12.551,0,0,1,7.285,4.4,6.409,6.409,0,0,1,1.27,3.431C26.053,51.857,26.058,51.966,26.058,52.08Zm0,0" transform="translate(0 -40.676)"/><path class="b" d="M.09,178.4A.266.266,0,0,1,.1,178.34a.361.361,0,0,0-.011.076Zm0,0" transform="translate(-0.085 -167.18)"/><path class="c" d="M.09,178.4A.266.266,0,0,1,.1,178.34a.361.361,0,0,0-.011.076Zm0,0" transform="translate(-0.085 -167.18)"/><path class="d" d="M381.836,164.887h5.429v2.171h-5.429Zm0,0" transform="translate(-357.949 -154.568)"/><path class="d" d="M478.922,174.652h-1.086a.543.543,0,0,1,0-1.086h1.086a.543.543,0,0,1,0,1.086Zm0,0" transform="translate(-447.435 -162.705)"/><path d="M83.414,84.562c0,.114-.005.223-.016.337-.347,3.442-6.042,6.178-13.013,6.178a21.573,21.573,0,0,1-8.9-1.754,7.349,7.349,0,0,0,1.1-2.589,9,9,0,0,0,.2-1.9,8.735,8.735,0,0,0-.337-2.427,6.765,6.765,0,0,0-1.265-2.459,21.211,21.211,0,0,1,9.2-1.9c6.97,0,12.665,2.736,13.013,6.178C83.409,84.339,83.414,84.448,83.414,84.562Zm0,0" transform="translate(-57.356 -73.158)"/><path class="a" d="M102.368,141.553c0,.386-.385.755-1.086,1.086a21.836,21.836,0,0,1-6.542,1.384h-10.8c-.852-.081-1.656-.184-2.4-.3a9,9,0,0,0,.2-1.9A8.735,8.735,0,0,0,81.4,139.4a52.348,52.348,0,0,1,7.937-.559c5.342,0,9.935.668,11.943,1.629C101.983,140.8,102.368,141.168,102.368,141.553Zm0,0" transform="translate(-76.31 -130.149)"/><g transform="translate(28.23 9.233)"><path class="a" d="M451.8,147.531a1.628,1.628,0,0,1,1.628,1.629v1.086a1.628,1.628,0,0,1-1.628,1.629.543.543,0,0,1-.543-.543v-3.257A.543.543,0,0,1,451.8,147.531Zm0,0" transform="translate(-451.258 -147.531)"/></g></g></svg>