<svg xmlns="http://www.w3.org/2000/svg" width="45.358" height="55.844" viewBox="0 0 45.358 55.844"><defs><style>.a{fill:#67b9cc;}.b{fill:#fff;}.c{fill:#ffe83b;}.d{fill:#6dc54a;}.e{fill:#9b1000;}</style></defs><path class="a" d="M236.567,0a2.737,2.737,0,0,0-2.436,3.989L217.937,20.183a.839.839,0,1,0,1.186,1.186L235.317,5.175A2.739,2.739,0,1,0,236.567,0Zm0,3.8a1.062,1.062,0,1,1,1.062-1.062A1.063,1.063,0,0,1,236.567,3.8Zm0,0" transform="translate(-193.948 0)"/><path class="b" d="M20.035,126.623h1.9L39.8,105.887a1.118,1.118,0,0,0-.847-1.848H1.12a1.118,1.118,0,0,0-.847,1.848l17.862,20.736Zm0,0" transform="translate(0 -92.691)"/><path class="b" d="M184.583,104.039l-19.341,22.454.112.13h3.8l17.862-20.736a1.118,1.118,0,0,0-.847-1.848Zm0,0" transform="translate(-147.219 -92.691)"/><path class="b" d="M104.462,326.489v-15.4h-3.8v15.4a2.236,2.236,0,0,1-1.227,2L93,331.737a.671.671,0,0,0,.3,1.27h18.521a.671.671,0,0,0,.3-1.27l-6.435-3.253A2.236,2.236,0,0,1,104.462,326.489Zm0,0" transform="translate(-82.526 -277.163)"/><path class="b" d="M168.393,314.112v12.644a3.8,3.8,0,0,0,2.086,3.392l5.655,2.858h1.3a.671.671,0,0,0,.3-1.27l-6.435-3.253a2.235,2.235,0,0,1-1.227-2v-15.4h-3.8v1.9h1.006A1.118,1.118,0,0,1,168.393,314.112Zm0,0" transform="translate(-148.134 -277.163)"/><path class="c" d="M29.41,152.215l14.927,17.329h3.8l14.927-17.329Zm0,0" transform="translate(-26.202 -135.613)"/><path class="d" d="M170.577,178.308c-1.746-1.746-4.33-1.994-5.771-.553s-1.193,4.025.553,5.771,4.33,1.994,5.771.553S172.323,180.055,170.577,178.308Zm0,0" transform="translate(-145.995 -157.532)"/><path class="b" d="M145.835,235.018a.839.839,0,0,1-.593-1.432l2.711-2.711a.839.839,0,0,1,1.186,1.186l-2.711,2.711A.835.835,0,0,1,145.835,235.018Zm0,0" transform="translate(-129.182 -205.475)"/><path class="e" d="M164.367,170.865a5.726,5.726,0,0,0-3.983-1.737,4.157,4.157,0,0,0-2.974,1.183c-1.765,1.765-1.517,4.886.553,6.957A5.725,5.725,0,0,0,161.947,179a4.16,4.16,0,0,0,2.974-1.183C166.686,176.057,166.437,172.936,164.367,170.865Zm0,0" transform="translate(-139.192 -150.682)"/><path class="b" d="M217.937,112.875a.839.839,0,0,0,1.186,1.186l10.021-10.021h-2.372Zm0,0" transform="translate(-193.948 -92.691)"/><path class="b" d="M218.53,157.227a.836.836,0,0,0,.593-.246l4.766-4.766h-2.372l-3.581,3.581a.839.839,0,0,0,.593,1.431Zm0,0" transform="translate(-193.948 -135.613)"/><path class="a" d="M99.433,320.833,93,324.086a.671.671,0,0,0,.3,1.27h18.521a.671.671,0,0,0,.3-1.27l-6.435-3.253A17.289,17.289,0,0,0,99.433,320.833Z" transform="translate(-82.526 -269.512)"/></svg>