<svg xmlns="http://www.w3.org/2000/svg" width="30.853" height="30.853" viewBox="0 0 30.853 30.853"><defs><style>.a{fill:#ddb16f;}.b{fill:none;stroke:#ddb16f;stroke-width:3px;stroke-dasharray:1 3;}</style></defs><g transform="translate(-319.935 -86.5)"><rect width="29" height="28" rx="14" transform="translate(321 88)"/><g transform="translate(328.834 94.963)"><path class="a" d="M8.882,1.522a5.2,5.2,0,1,0-.712,7.95,1.1,1.1,0,0,0,.3.552l2.955,2.955a1.1,1.1,0,0,0,1.555-1.555L10.023,8.468a1.1,1.1,0,0,0-.551-.3A5.21,5.21,0,0,0,8.882,1.522ZM7.95,7.95a3.885,3.885,0,1,1,0-5.494A3.89,3.89,0,0,1,7.95,7.95Z" transform="translate(-0.001 0)"/></g><rect class="b" width="27.853" height="27.853" rx="13.926" transform="translate(321.435 88)"/></g></svg>