<svg xmlns="http://www.w3.org/2000/svg" width="42.47" height="59" viewBox="0 0 42.47 59"><defs><style>.a{fill:#9b1000;}.b{fill:#ddb16f;}.c{fill:#fff;}.d{fill:#67b9cc;}</style></defs><path class="a" d="M13.219,122.765V120H6.61v2.765A9.919,9.919,0,0,0,0,132.118v28.155a2.2,2.2,0,0,0,2.2,2.2H17.625a2.21,2.21,0,0,0,2.2-2.2V132.118A9.934,9.934,0,0,0,13.219,122.765Zm0,0" transform="translate(0 -103.476)"/><path class="b" d="M48,0h6.61V5.5H48Zm0,0" transform="translate(-41.39)"/><path class="b" d="M48,39.922h6.61V50.949H48Zm0,0" transform="translate(-41.39 -34.425)"/><path class="b" d="M71.977,39.922h3.308V50.949H71.977Zm0,0" transform="translate(-62.065 -34.425)"/><g transform="translate(9.911)"><path class="b" d="M71.977,0h3.308V5.5H71.977Zm0,0" transform="translate(-71.977)"/></g><path class="c" d="M249.1,399.475a1.1,1.1,0,0,1-1.1-1.1V385.164a1.1,1.1,0,0,1,2.2,0v13.209A1.1,1.1,0,0,1,249.1,399.475Zm0,0" transform="translate(-215.445 -340.476)"/><path class="c" d="M207.411,224.078l2.2,14.31H192l2.2-14.31Zm0,0" transform="translate(-167.156 -202.521)"/><path class="c" d="M290.108,224.078H287.9l2.2,14.31h2.206Zm0,0" transform="translate(-249.853 -202.521)"/><path class="a" d="M209.615,328h.011a8.813,8.813,0,0,1-17.625.011V328Zm0,0" transform="translate(-167.156 -292.134)"/><path class="d" d="M214.293,482.2H201.078a1.1,1.1,0,0,1,0-2.2h13.215a1.1,1.1,0,0,1,0,2.2Zm0,0" transform="translate(-174.034 -423.196)"/></svg>